<mxfile host="app.diagrams.net" modified="2024-01-19T12:44:16.347Z" agent="Mozilla/5.0 (Windows NT 10.0; Win64; x64) AppleWebKit/537.36 (KHTML, like Gecko) Chrome/120.0.0.0 Safari/537.36" etag="ECF4ywcJGqxrkRHIRkBY" version="22.1.21" type="device">
  <diagram name="Sayfa -1" id="CZ5pRChXqT2sCu3U4GCp">
    <mxGraphModel dx="880" dy="1637" grid="1" gridSize="10" guides="1" tooltips="1" connect="1" arrows="1" fold="1" page="1" pageScale="1" pageWidth="827" pageHeight="1169" math="0" shadow="0">
      <root>
        <mxCell id="0" />
        <mxCell id="1" parent="0" />
        <mxCell id="ccQO99EUONrODxHCrun--2" style="edgeStyle=orthogonalEdgeStyle;rounded=0;orthogonalLoop=1;jettySize=auto;html=1;" parent="1" source="uVgCLmZvWoZWqMM3whqk-1" target="ccQO99EUONrODxHCrun--1" edge="1">
          <mxGeometry relative="1" as="geometry" />
        </mxCell>
        <mxCell id="uVgCLmZvWoZWqMM3whqk-1" value="&lt;font style=&quot;vertical-align: inherit;&quot;&gt;&lt;font style=&quot;vertical-align: inherit;&quot;&gt;Başla&lt;/font&gt;&lt;/font&gt;" style="ellipse;whiteSpace=wrap;html=1;" parent="1" vertex="1">
          <mxGeometry x="90" y="-10" width="120" height="80" as="geometry" />
        </mxCell>
        <mxCell id="ccQO99EUONrODxHCrun--4" style="edgeStyle=orthogonalEdgeStyle;rounded=0;orthogonalLoop=1;jettySize=auto;html=1;" parent="1" source="ccQO99EUONrODxHCrun--1" target="ccQO99EUONrODxHCrun--3" edge="1">
          <mxGeometry relative="1" as="geometry" />
        </mxCell>
        <mxCell id="ccQO99EUONrODxHCrun--1" value="sayi=44" style="shape=parallelogram;perimeter=parallelogramPerimeter;whiteSpace=wrap;html=1;fixedSize=1;" parent="1" vertex="1">
          <mxGeometry x="240" width="120" height="60" as="geometry" />
        </mxCell>
        <mxCell id="ccQO99EUONrODxHCrun--6" style="edgeStyle=orthogonalEdgeStyle;rounded=0;orthogonalLoop=1;jettySize=auto;html=1;" parent="1" source="ccQO99EUONrODxHCrun--3" target="ccQO99EUONrODxHCrun--5" edge="1">
          <mxGeometry relative="1" as="geometry" />
        </mxCell>
        <mxCell id="ccQO99EUONrODxHCrun--3" value="sayaç =1&lt;br&gt;faktoriyel=1" style="rounded=0;whiteSpace=wrap;html=1;" parent="1" vertex="1">
          <mxGeometry x="400" width="120" height="60" as="geometry" />
        </mxCell>
        <mxCell id="ccQO99EUONrODxHCrun--8" style="edgeStyle=orthogonalEdgeStyle;rounded=0;orthogonalLoop=1;jettySize=auto;html=1;" parent="1" source="ccQO99EUONrODxHCrun--5" target="ccQO99EUONrODxHCrun--7" edge="1">
          <mxGeometry relative="1" as="geometry">
            <mxPoint x="750" y="200" as="targetPoint" />
          </mxGeometry>
        </mxCell>
        <mxCell id="ccQO99EUONrODxHCrun--5" value="faktoriyel=faktoriyel*sayaç" style="rounded=0;whiteSpace=wrap;html=1;" parent="1" vertex="1">
          <mxGeometry x="660" width="150" height="60" as="geometry" />
        </mxCell>
        <mxCell id="ccQO99EUONrODxHCrun--10" style="edgeStyle=orthogonalEdgeStyle;rounded=0;orthogonalLoop=1;jettySize=auto;html=1;" parent="1" source="ccQO99EUONrODxHCrun--7" target="ccQO99EUONrODxHCrun--9" edge="1">
          <mxGeometry relative="1" as="geometry">
            <Array as="points">
              <mxPoint x="650" y="160" />
              <mxPoint x="650" y="160" />
            </Array>
          </mxGeometry>
        </mxCell>
        <mxCell id="ccQO99EUONrODxHCrun--11" value="hayır" style="edgeLabel;html=1;align=center;verticalAlign=middle;resizable=0;points=[];" parent="ccQO99EUONrODxHCrun--10" vertex="1" connectable="0">
          <mxGeometry x="-0.12" y="-1" relative="1" as="geometry">
            <mxPoint as="offset" />
          </mxGeometry>
        </mxCell>
        <mxCell id="ccQO99EUONrODxHCrun--14" style="edgeStyle=orthogonalEdgeStyle;rounded=0;orthogonalLoop=1;jettySize=auto;html=1;" parent="1" source="ccQO99EUONrODxHCrun--7" target="ccQO99EUONrODxHCrun--13" edge="1">
          <mxGeometry relative="1" as="geometry" />
        </mxCell>
        <mxCell id="ccQO99EUONrODxHCrun--15" value="evet" style="edgeLabel;html=1;align=center;verticalAlign=middle;resizable=0;points=[];" parent="ccQO99EUONrODxHCrun--14" vertex="1" connectable="0">
          <mxGeometry x="-0.1111" relative="1" as="geometry">
            <mxPoint as="offset" />
          </mxGeometry>
        </mxCell>
        <mxCell id="ccQO99EUONrODxHCrun--7" value="sayaç==sayi" style="rhombus;whiteSpace=wrap;html=1;" parent="1" vertex="1">
          <mxGeometry x="695" y="140" width="80" height="80" as="geometry" />
        </mxCell>
        <mxCell id="ccQO99EUONrODxHCrun--12" style="edgeStyle=orthogonalEdgeStyle;rounded=0;orthogonalLoop=1;jettySize=auto;html=1;" parent="1" source="ccQO99EUONrODxHCrun--9" edge="1">
          <mxGeometry relative="1" as="geometry">
            <mxPoint x="570" y="30" as="targetPoint" />
            <Array as="points">
              <mxPoint x="560" y="120" />
              <mxPoint x="561" y="120" />
            </Array>
          </mxGeometry>
        </mxCell>
        <mxCell id="ccQO99EUONrODxHCrun--9" value="sayaç++" style="rounded=0;whiteSpace=wrap;html=1;" parent="1" vertex="1">
          <mxGeometry x="480" y="130" width="120" height="60" as="geometry" />
        </mxCell>
        <mxCell id="ccQO99EUONrODxHCrun--17" style="edgeStyle=orthogonalEdgeStyle;rounded=0;orthogonalLoop=1;jettySize=auto;html=1;" parent="1" source="ccQO99EUONrODxHCrun--13" target="ccQO99EUONrODxHCrun--16" edge="1">
          <mxGeometry relative="1" as="geometry" />
        </mxCell>
        <mxCell id="ccQO99EUONrODxHCrun--13" value="faktoriyel" style="shape=document;whiteSpace=wrap;html=1;boundedLbl=1;" parent="1" vertex="1">
          <mxGeometry x="675" y="330" width="120" height="80" as="geometry" />
        </mxCell>
        <mxCell id="ccQO99EUONrODxHCrun--16" value="Bitir" style="ellipse;whiteSpace=wrap;html=1;" parent="1" vertex="1">
          <mxGeometry x="90" y="220" width="120" height="80" as="geometry" />
        </mxCell>
      </root>
    </mxGraphModel>
  </diagram>
</mxfile>
